<svg width="60" height="60" viewBox="0 0 60 60" fill="none" xmlns="http://www.w3.org/2000/svg">
    <g filter="url(#filter0_d_50_156)">
        <path d="M2 29C2 13.536 14.536 1 30 1V1C45.464 1 58 13.536 58 29V29C58 44.464 45.464 57 30 57V57C14.536 57 2 44.464 2 29V29Z" fill="#0A77FF" shape-rendering="crispEdges"/>
        <g clip-path="url(#clip0_50_156)">
            <g filter="url(#filter1_d_50_156)">
                <path d="M16.6667 19.6665C16.6667 17.4574 18.4576 15.6665 20.6667 15.6665H24.6667C26.8759 15.6665 28.6667 17.4574 28.6667 19.6665V23.6665C28.6667 25.8756 26.8759 27.6665 24.6667 27.6665H20.6667C18.4576 27.6665 16.6667 25.8756 16.6667 23.6665V19.6665Z" fill="white"/>
                <path d="M16.6667 34.3332C16.6667 32.124 18.4576 30.3332 20.6667 30.3332H24.6667C26.8759 30.3332 28.6667 32.124 28.6667 34.3332V38.3332C28.6667 40.5423 26.8759 42.3332 24.6667 42.3332H20.6667C18.4576 42.3332 16.6667 40.5423 16.6667 38.3332V34.3332Z" fill="white"/>
                <path d="M31.3334 19.6665C31.3334 17.4574 33.1243 15.6665 35.3334 15.6665H39.3334C41.5426 15.6665 43.3334 17.4574 43.3334 19.6665V23.6665C43.3334 25.8756 41.5426 27.6665 39.3334 27.6665H35.3334C33.1243 27.6665 31.3334 25.8756 31.3334 23.6665V19.6665Z" fill="white"/>
                <path d="M38.6667 31.6665C38.6667 30.9301 38.0698 30.3332 37.3334 30.3332C36.597 30.3332 36.0001 30.9301 36.0001 31.6665V34.9998H32.6667C31.9304 34.9998 31.3334 35.5968 31.3334 36.3332C31.3334 37.0696 31.9304 37.6665 32.6667 37.6665H36.0001V40.9998C36.0001 41.7362 36.597 42.3332 37.3334 42.3332C38.0698 42.3332 38.6667 41.7362 38.6667 40.9998V37.6665H42.0001C42.7365 37.6665 43.3334 37.0696 43.3334 36.3332C43.3334 35.5968 42.7365 34.9998 42.0001 34.9998H38.6667V31.6665Z" fill="white"/>
            </g>
        </g>
    </g>
    <defs>
        <filter id="filter0_d_50_156" x="0" y="0" width="60" height="60" filterUnits="userSpaceOnUse" color-interpolation-filters="sRGB">
            <feFlood flood-opacity="0" result="BackgroundImageFix"/>
            <feColorMatrix in="SourceAlpha" type="matrix" values="0 0 0 0 0 0 0 0 0 0 0 0 0 0 0 0 0 0 127 0" result="hardAlpha"/>
            <feOffset dy="1"/>
            <feGaussianBlur stdDeviation="1"/>
            <feComposite in2="hardAlpha" operator="out"/>
            <feColorMatrix type="matrix" values="0 0 0 0 0.0627451 0 0 0 0 0.0941176 0 0 0 0 0.156863 0 0 0 0.04 0"/>
            <feBlend mode="normal" in2="BackgroundImageFix" result="effect1_dropShadow_50_156"/>
            <feBlend mode="normal" in="SourceGraphic" in2="effect1_dropShadow_50_156" result="shape"/>
        </filter>
        <filter id="filter1_d_50_156" x="14.6667" y="14.6665" width="30.6667" height="30.6665" filterUnits="userSpaceOnUse" color-interpolation-filters="sRGB">
            <feFlood flood-opacity="0" result="BackgroundImageFix"/>
            <feColorMatrix in="SourceAlpha" type="matrix" values="0 0 0 0 0 0 0 0 0 0 0 0 0 0 0 0 0 0 127 0" result="hardAlpha"/>
            <feOffset dy="1"/>
            <feGaussianBlur stdDeviation="1"/>
            <feComposite in2="hardAlpha" operator="out"/>
            <feColorMatrix type="matrix" values="0 0 0 0 0.0627451 0 0 0 0 0.0941176 0 0 0 0 0.156863 0 0 0 0.04 0"/>
            <feBlend mode="normal" in2="BackgroundImageFix" result="effect1_dropShadow_50_156"/>
            <feBlend mode="normal" in="SourceGraphic" in2="effect1_dropShadow_50_156" result="shape"/>
        </filter>
        <clipPath id="clip0_50_156">
            <rect width="32" height="32" fill="white" transform="translate(14 13)"/>
        </clipPath>
    </defs>
</svg>
