<svg width="60" height="60" viewBox="0 0 60 60" fill="none" xmlns="http://www.w3.org/2000/svg">
    <g filter="url(#filter0_d_50_2980)">
        <path d="M2 29C2 13.536 14.536 1 30 1V1C45.464 1 58 13.536 58 29V29C58 44.464 45.464 57 30 57V57C14.536 57 2 44.464 2 29V29Z" fill="#0A77FF" shape-rendering="crispEdges"/>
        <g filter="url(#filter1_d_50_2980)">
            <path fill-rule="evenodd" clip-rule="evenodd" d="M18 21.2667C18 19.7732 18 19.0265 18.2906 18.456C18.5463 17.9543 18.9543 17.5463 19.456 17.2906C20.0265 17 20.7732 17 22.2667 17H37.7333C39.2268 17 39.9735 17 40.544 17.2906C41.0457 17.5463 41.4537 17.9543 41.7094 18.456C42 19.0265 42 19.7732 42 21.2667V30.0667C42 31.5601 42 32.3069 41.7094 32.8773C41.4537 33.3791 41.0457 33.787 40.544 34.0427C39.9735 34.3333 39.2268 34.3333 37.7333 34.3333H31.3333V39.6667H38C38.7364 39.6667 39.3333 40.2636 39.3333 41C39.3333 41.7364 38.7364 42.3333 38 42.3333H22C21.2636 42.3333 20.6667 41.7364 20.6667 41C20.6667 40.2636 21.2636 39.6667 22 39.6667H28.6667V34.3333H22.2667C20.7732 34.3333 20.0265 34.3333 19.456 34.0427C18.9543 33.787 18.5463 33.3791 18.2906 32.8773C18 32.3069 18 31.5601 18 30.0667V21.2667ZM24.6667 26.3333C25.403 26.3333 26 26.9303 26 27.6667L26 30.3333C26 31.0697 25.403 31.6667 24.6667 31.6667C23.9303 31.6667 23.3333 31.0697 23.3333 30.3333L23.3333 27.6667C23.3333 26.9303 23.9303 26.3333 24.6667 26.3333ZM31.3333 22.3333C31.3333 21.597 30.7364 21 30 21C29.2636 21 28.6667 21.597 28.6667 22.3333L28.6667 30.3333C28.6667 31.0697 29.2636 31.6667 30 31.6667C30.7364 31.6667 31.3333 31.0697 31.3333 30.3333L31.3333 22.3333ZM35.3333 23.6667C36.0697 23.6667 36.6667 24.2636 36.6667 25V30.3333C36.6667 31.0697 36.0697 31.6667 35.3333 31.6667C34.597 31.6667 34 31.0697 34 30.3333V25C34 24.2636 34.597 23.6667 35.3333 23.6667Z" fill="white"/>
        </g>
    </g>
    <defs>
        <filter id="filter0_d_50_2980" x="0" y="0" width="60" height="60" filterUnits="userSpaceOnUse" color-interpolation-filters="sRGB">
            <feFlood flood-opacity="0" result="BackgroundImageFix"/>
            <feColorMatrix in="SourceAlpha" type="matrix" values="0 0 0 0 0 0 0 0 0 0 0 0 0 0 0 0 0 0 127 0" result="hardAlpha"/>
            <feOffset dy="1"/>
            <feGaussianBlur stdDeviation="1"/>
            <feComposite in2="hardAlpha" operator="out"/>
            <feColorMatrix type="matrix" values="0 0 0 0 0.0627451 0 0 0 0 0.0941176 0 0 0 0 0.156863 0 0 0 0.04 0"/>
            <feBlend mode="normal" in2="BackgroundImageFix" result="effect1_dropShadow_50_2980"/>
            <feBlend mode="normal" in="SourceGraphic" in2="effect1_dropShadow_50_2980" result="shape"/>
        </filter>
        <filter id="filter1_d_50_2980" x="16" y="16" width="28" height="29.3335" filterUnits="userSpaceOnUse" color-interpolation-filters="sRGB">
            <feFlood flood-opacity="0" result="BackgroundImageFix"/>
            <feColorMatrix in="SourceAlpha" type="matrix" values="0 0 0 0 0 0 0 0 0 0 0 0 0 0 0 0 0 0 127 0" result="hardAlpha"/>
            <feOffset dy="1"/>
            <feGaussianBlur stdDeviation="1"/>
            <feComposite in2="hardAlpha" operator="out"/>
            <feColorMatrix type="matrix" values="0 0 0 0 0.0627451 0 0 0 0 0.0941176 0 0 0 0 0.156863 0 0 0 0.04 0"/>
            <feBlend mode="normal" in2="BackgroundImageFix" result="effect1_dropShadow_50_2980"/>
            <feBlend mode="normal" in="SourceGraphic" in2="effect1_dropShadow_50_2980" result="shape"/>
        </filter>
    </defs>
</svg>
